<svg xmlns="http://www.w3.org/2000/svg" viewBox="0 0 3508 2480">
  <path fill="#2d539e" d="M 1518.6072,2280.7017 C 871.52605,2210.1002 366.69141,1914.3988 198.15682,1507.2624 -17.249758,986.8952 409.37747,439.73859 1181.8936,245.60372 c 196.1662,-49.29689 356.7074,-68.18455 579.5564,-68.18455 361.6069,0 656.1971,62.78384 959.0281,204.39065 197.456,92.33232 393.2715,247.30175 503.4584,398.43941 56.4989,77.49657 113.0465,193.88477 135.7615,279.42907 15.9473,60.0564 18.3207,82.4024 18.3207,172.4871 0,89.2965 -2.4354,112.6432 -17.7554,170.207 -71.3613,268.1369 -282.9478,500.4709 -604.8245,664.1317 -231.3088,117.6108 -463.2988,183.1336 -758.8259,214.3213 -118.7003,12.5268 -362.6398,12.4637 -478.0057,-0.1238 z m 473.9755,-109.68 c 515.1268,-67.9661 916.5498,-318.7752 1061.9661,-663.5163 29.7681,-70.5716 33.0284,-79.403 35.4234,-95.9535 1.0981,-7.5894 6.021,-27.6951 10.2913,-44.8466 27.8634,-111.9122 19.633,-170.8387 -1.6042,-276.2566 -5.6042,-27.8184 -12.1135,-43.6493 -19.4081,-65.1567 -6.9158,-20.3908 -54.7663,-135.91523 -91.4313,-190.961 C 2882.7609,676.60408 2730.7216,549.42856 2530.4434,451.75205 2136.0652,259.41223 1624.7766,229.41307 1188.2139,372.99854 866.12031,478.93516 611.75989,674.45392 492.40099,907.84802 326.69779,1231.8634 420.52586,1596.3664 735.46975,1852.121 c 199.32854,161.8676 466.89035,272.8376 750.00095,311.0595 47.434,6.404 98.585,13.7742 113.669,16.3784 49.0145,8.4624 307.0336,2.8638 393.443,-8.5372 z"/>
  <path fill="#2d539e" d="m 1179.7119,1887.9694 c -35.4755,-12.6522 -50.3316,-27.3649 -64.1395,-63.5205 -9.5539,-25.0161 -10.2244,-35.0922 -3.7697,-56.6363 5.5958,-18.6774 128.8938,-170.5099 429.1634,-528.4839 351.6732,-419.25629 420.9652,-505.26497 419.2154,-520.35067 l -2.0962,-18.07289 -263.4285,-1.80642 c -252.4,-1.73074 -265.036,-1.20485 -301.8293,12.56127 -55.9939,20.95002 -108.8074,72.05142 -137.9628,133.49077 -27.9081,58.81063 -46.2843,71.36327 -85.9146,58.68751 -33.5575,-10.73343 -56.0514,-32.43115 -56.0514,-54.06731 0,-30.50709 82.1553,-266.89004 97.6248,-280.89257 13.563,-12.27682 38.4378,-12.95781 546.4734,-14.95898 292.745,-1.1531 548.979,-0.1018 569.4088,2.33663 30.0689,3.58878 42.3969,9.33179 64.7107,30.146 23.4422,21.86658 28.063,30.89225 30.8927,60.34097 2.222,23.1246 -0.1296,41.31091 -7.0786,54.74444 -5.7232,11.06383 -194.2095,239.00225 -418.8584,506.52965 -224.6489,267.5275 -413.065,493.2473 -418.7022,501.5996 -5.9017,8.744 -8.3464,21.1829 -5.7628,29.3228 4.42,13.926 8.4363,14.1368 269.3931,14.1368 250.3241,0 266.991,-0.7801 302.7786,-14.1698 55.0678,-20.6035 102.7061,-66.5629 131.8926,-127.2444 13.3036,-27.659 29.0632,-54.335 35.0213,-59.2798 25.7499,-21.3705 94.0046,0.086 107.2392,33.712 6.165,15.6637 2.1142,34.631 -25.3467,118.6856 -52.2478,159.9233 -57.275,171.5106 -79.3664,182.9345 -28.32,14.6448 -1092.4876,14.8842 -1133.5069,0.2548 z"/>
</svg>
